<?xml version="1.0" encoding="iso-8859-1"?>
<!-- Generator: Adobe Illustrator 19.0.0, SVG Export Plug-In . SVG Version: 6.00 Build 0)  -->
<!-- License: CC0. Made by SVG Repo: https://www.svgrepo.com/svg/17406/phonebook -->
<svg xmlns="http://www.w3.org/2000/svg" xmlns:xlink="http://www.w3.org/1999/xlink" version="1.1" id="Layer_1" x="0px"
  y="0px" viewBox="0 0 311.533 311.533" style="enable-background: new 0 0 311.533 311.533" xml:space="preserve"
  width="300" height="300">
  <g>
    <path style="fill: #fd651b"
      d="M273.017,311.533h-206c-8.284,0-15-6.716-15-15V15c0-8.284,6.716-15,15-15h206   c8.284,0,15,6.716,15,15v281.533C288.017,304.817,281.301,311.533,273.017,311.533z" />
    <path style="fill: #d35c23"
      d="M170.017,311.533h-103c-8.284,0-15-6.716-15-15V15c0-8.284,6.716-15,15-15h103V311.533z" />
    <g>
      <g>
        <path style="fill: #dcdbcd"
          d="M211.044,203.269h-82.056v-27.646c0-14.681,11.901-26.582,26.582-26.582h28.891     c14.681,0,26.582,11.901,26.582,26.582V203.269z" />
        <circle style="fill: #dcdbcd" cx="170.017" cy="115.746" r="26.044" />
      </g>
    </g>
    <g>
      <path style="fill: #b7b7ac"
        d="M170.017,203.269h-41.028v-27.646c0-14.681,11.901-26.582,26.582-26.582h14.446V203.269z" />
      <path style="fill: #b7b7ac"
        d="M170.017,141.79c-14.384,0-26.044-11.66-26.044-26.044s11.66-26.044,26.044-26.044V141.79z" />
    </g>
    <g>
      <g>
        <path style="fill: #58364e"
          d="M65.517,82.776h-27c-8.284,0-15-6.716-15-15s6.716-15,15-15h27c8.284,0,15,6.716,15,15     S73.801,82.776,65.517,82.776z" />
        <path style="fill: #58364e"
          d="M65.517,141.437h-27c-8.284,0-15-6.716-15-15s6.716-15,15-15h27c8.284,0,15,6.716,15,15     S73.801,141.437,65.517,141.437z" />
        <path style="fill: #58364e"
          d="M65.517,200.097h-27c-8.284,0-15-6.716-15-15s6.716-15,15-15h27c8.284,0,15,6.716,15,15     S73.801,200.097,65.517,200.097z" />
        <path style="fill: #58364e"
          d="M65.517,258.757h-27c-8.284,0-15-6.716-15-15s6.716-15,15-15h27c8.284,0,15,6.716,15,15     S73.801,258.757,65.517,258.757z" />
      </g>
    </g>
  </g>
</svg>
