<?xml version="1.0" encoding="utf-8"?>
<!-- Svg Vector Icons : http://www.onlinewebfonts.com/icon -->
<!DOCTYPE svg PUBLIC "-//W3C//DTD SVG 1.1//EN" "http://www.w3.org/Graphics/SVG/1.1/DTD/svg11.dtd">
<svg version="1.1" xmlns="http://www.w3.org/2000/svg" xmlns:xlink="http://www.w3.org/1999/xlink" x="0px" y="0px" viewBox="0 0 1000 1000" enable-background="new 0 0 1000 1000" xml:space="preserve">
<metadata> Svg Vector Icons : http://www.onlinewebfonts.com/icon </metadata>
<g><path d="M213,241.3c0,28.5-21.8,51.6-48.7,51.6H58.8c-27-0.1-48.8-23.1-48.8-51.6c0-28.5,21.8-51.6,48.8-51.6h105.5C191.2,189.8,213,212.9,213,241.3"/><path d="M213,475.9c0,28.5-21.8,51.6-48.7,51.6H58.8c-27-0.1-48.8-23.1-48.8-51.6c0-28.5,21.8-51.6,48.8-51.6h105.5C191.2,424.4,213,447.5,213,475.9"/><path d="M213,710.6c0,28.5-21.8,51.6-48.7,51.6H58.8c-27,0-48.8-23.1-48.8-51.6c0-28.5,21.8-51.6,48.8-51.6h105.5C191.2,659,213,682.1,213,710.6"/><path d="M874.2,724.9l-19.3,17c-13.5,14-56.7,52.6-128.3,53.4c-86.1,0.9-177-53.1-269.8-160.6c-92.9-107.4-133.5-205.4-120.6-290.9c10.7-71.3,54.7-108.8,70.5-120.3l19.2-16.9c35.7-31.1,63.7-4.7,89.5,35.6l15.5,24.5c25.7,40.4,39.1,79.6,3.5,110.7L513,396.1c-15.6,13.5-82.5,33.7,29.8,163.4C655,689.4,684.1,625.7,699.7,612l21.3-18.8c35.8-31.1,72.5-12.2,108.7,18.9l21.8,18.8C887.7,662.2,909.8,693.8,874.2,724.9 M836.7,9.3H264.8C183.4,9.3,117.1,73,112,153.5h52.3c46.7,0,84.8,39.4,84.8,87.8c0,48.4-38,87.8-84.8,87.8h-52.8v57.9h52.8c46.7,0,84.8,39.4,84.8,87.8c0,48.5-38,87.9-84.8,87.9h-52.8v57.9h52.8c46.7,0,84.8,39.4,84.8,87.8c0,48.4-38,87.8-84.8,87.8h-52.8v40.3c0,85.1,68.6,154.1,153.3,154.1h571.9c84.6,0,153.3-69,153.3-154.1V163.4C990,78.3,921.4,9.3,836.7,9.3"/></g>
</svg>